<svg width="24" height="24" viewBox="0 0 24 24" fill="none" xmlns="http://www.w3.org/2000/svg">
    <path fill-rule="evenodd" clip-rule="evenodd" d="M4 3H20C20.5523 3 21 3.44772 21 4V15H22V4C22 2.89543 21.1046 2 20 2H4C2.89543 2 2 2.89543 2 4V20C2 21.1046 2.89543 22 4 22H15V21H4C3.44772 21 3 20.5523 3 20V4C3 3.44772 3.44772 3 4 3Z" fill="white"/>
    <line x1="3" y1="5.5" x2="21" y2="5.5" stroke="white"/>
    <path d="M16.2984 8.657L14.0517 8C14.0517 8.47739 13.8356 8.93523 13.4508 9.27279C13.066 9.61036 12.5442 9.8 12 9.8C11.4558 9.8 10.934 9.61036 10.5492 9.27279C10.1644 8.93523 9.94826 8.47739 9.94826 8L7.70161 8.657C7.46945 8.72486 7.27258 8.86329 7.14654 9.0473C7.0205 9.23132 6.97359 9.4488 7.01428 9.6605L7.31178 11.222C7.33131 11.3277 7.39318 11.4238 7.48625 11.4931C7.57933 11.5624 7.69752 11.6003 7.81959 11.6H8.9224V16.1C8.9224 16.595 9.38404 17 9.94826 17H14.0517C14.3238 17 14.5847 16.9052 14.7771 16.7364C14.9695 16.5676 15.0776 16.3387 15.0776 16.1V11.6H16.1804C16.3025 11.6003 16.4207 11.5624 16.5137 11.4931C16.6068 11.4238 16.6687 11.3277 16.6882 11.222L16.9857 9.6605C17.0264 9.4488 16.9795 9.23132 16.8535 9.0473C16.7274 8.86329 16.5305 8.72486 16.2984 8.657Z" stroke="white" stroke-linecap="round" stroke-linejoin="round"/>
    <path d="M17 17L19.0794 22L19.8176 19.8265L22 19.0794L17 17Z" stroke="white" stroke-linecap="round" stroke-linejoin="round"/>
</svg>
