<svg width="16" height="16" viewBox="0 0 16 16" fill="none" xmlns="http://www.w3.org/2000/svg">
<g id="news-list-16" clip-path="url(#clip0_1179_625)">
<path id="Vector" d="M2.62001 15.3337H13.52C13.9461 15.3198 14.3508 15.1029 14.6481 14.7293C14.9453 14.3558 15.1116 13.855 15.1114 13.3337V2.00033C15.1114 1.6467 14.9966 1.30757 14.7922 1.05752C14.5878 0.807469 14.3105 0.666992 14.0214 0.666992H5.30142C5.01233 0.666992 4.73508 0.807469 4.53067 1.05752C4.32625 1.30757 4.21142 1.6467 4.21142 2.00033V13.3337C4.21142 13.8641 4.03916 14.3728 3.73253 14.7479C3.42591 15.1229 3.01004 15.3337 2.57641 15.3337C2.14278 15.3337 1.72691 15.1229 1.42029 14.7479C1.11367 14.3728 0.941406 13.8641 0.941406 13.3337V3.00029H4.21166M13.1129 4.00029H6.58846M13.1129 6.70024H6.58846M13.1129 9.40031H6.58846M13.1129 12.1003H6.58846" stroke="white" stroke-linecap="round" stroke-linejoin="round"/>
</g>
<defs>
<clipPath id="clip0_1179_625">
<rect width="16" height="16" fill="white" transform="matrix(0 -1 1 0 0 16)"/>
</clipPath>
</defs>
</svg>
