<svg xmlns="http://www.w3.org/2000/svg" viewBox="0 0 120 120" width="120" height="120">
  <defs>
    <linearGradient id="backgroundGradient" x1="0%" y1="0%" x2="100%" y2="100%">
      <stop offset="0%" style="stop-color:#1e3a8a;stop-opacity:1" />
      <stop offset="100%" style="stop-color:#3b82f6;stop-opacity:1" />
    </linearGradient>
    <linearGradient id="cartGradient" x1="0%" y1="0%" x2="100%" y2="100%">
      <stop offset="0%" style="stop-color:#ffffff;stop-opacity:1" />
      <stop offset="100%" style="stop-color:#e5e7eb;stop-opacity:1" />
    </linearGradient>
  </defs>
  
  <circle cx="60" cy="60" r="55" fill="url(#backgroundGradient)" stroke="#1e40af" stroke-width="2"/>
  
  <g transform="translate(25, 25)">
    <path d="M10 15 L65 15 L60 45 L15 45 Z" fill="url(#cartGradient)" stroke="#1e40af" stroke-width="2" rx="3"/>
    
    <path d="M5 10 L10 15" stroke="#ffffff" stroke-width="3" stroke-linecap="round"/>
    
    <circle cx="22" cy="55" r="4" fill="#1e40af"/>
    <circle cx="53" cy="55" r="4" fill="#1e40af"/>
    
    <rect x="20" y="20" width="8" height="8" fill="#fbbf24" rx="1"/>
    <rect x="35" y="22" width="6" height="6" fill="#ef4444" rx="1"/>
    <rect x="45" y="18" width="10" height="10" fill="#10b981" rx="1"/>
    
    <text x="37" y="38" font-family="Arial Black, sans-serif" font-size="12" font-weight="bold" fill="#1e40af" text-anchor="middle">BS</text>
  </g>
  
  <circle cx="85" cy="25" r="2" fill="#fbbf24" opacity="0.8"/>
  <circle cx="95" cy="35" r="1.5" fill="#ef4444" opacity="0.8"/>
  <circle cx="25" cy="95" r="1.5" fill="#10b981" opacity="0.8"/>
  <circle cx="15" cy="85" r="2" fill="#8b5cf6" opacity="0.8"/>
</svg>